<?xml version="1.0" standalone="no"?>
<!DOCTYPE svg PUBLIC "-//W3C//DTD SVG 20010904//EN"
 "http://www.w3.org/TR/2001/REC-SVG-20010904/DTD/svg10.dtd">
<svg version="1.0" xmlns="http://www.w3.org/2000/svg"
 width="460.000000pt" height="460.000000pt" viewBox="0 0 460.000000 460.000000"
 preserveAspectRatio="xMidYMid meet">
<metadata>
Created by potrace 1.14, written by Peter Selinger 2001-2017
</metadata>
<g transform="translate(0.000000,460.000000) scale(0.100000,-0.100000)"
fill="#000000" stroke="none">
<path d="M0 2300 l0 -2300 2300 0 2300 0 0 2300 0 2300 -2300 0 -2300 0 0
-2300z m3624 694 c22 -21 20 -61 -3 -74 -56 -29 -123 8 -99 54 6 12 16 24 22
28 19 13 64 9 80 -8z m-3077 -54 c61 -49 71 -119 26 -188 -29 -45 -63 -62
-124 -62 l-39 0 0 -75 0 -75 -60 0 -60 0 0 216 0 216 113 -4 c103 -3 116 -5
144 -28z m1676 -100 c27 -30 27 -32 27 -165 l0 -135 -40 0 c-34 0 -41 4 -46
25 -6 24 -24 35 -24 15 0 -17 -58 -40 -103 -40 -63 0 -92 33 -92 105 0 42 4
58 20 70 33 26 64 35 121 35 57 0 62 5 40 35 -12 17 -18 18 -67 7 -58 -14 -66
-10 -75 35 -6 30 -4 32 32 42 97 25 165 15 207 -29z m591 13 c26 -23 26 -25
26 -168 l0 -145 -50 0 -50 0 0 94 c0 114 -12 156 -46 156 -34 0 -44 -33 -44
-151 l0 -99 -60 0 -60 0 0 103 c0 132 -5 149 -39 145 -39 -5 -51 -40 -51 -150
l0 -98 -55 0 -55 0 0 170 0 170 44 0 c36 0 45 -4 49 -21 l6 -21 29 22 c26 19
40 22 87 18 40 -3 60 -10 67 -21 11 -21 34 -22 45 -3 10 19 71 34 105 27 15
-3 38 -16 52 -28z m391 3 c21 -20 22 -20 52 4 17 13 41 20 70 20 96 0 113 -32
113 -210 l0 -130 -55 0 -55 0 0 99 c0 110 -10 151 -37 151 -43 -1 -48 -15 -51
-135 l-4 -115 -54 0 -54 0 -1 98 c-1 128 -7 147 -44 147 -37 0 -43 -19 -44
-147 l-1 -98 -60 0 -60 0 0 170 0 170 46 0 c37 0 47 -4 51 -20 6 -24 16 -25
33 -5 29 35 121 36 155 1z m1215 -6 c0 -18 -7 -33 -18 -39 -14 -7 -17 -18 -14
-44 3 -29 -2 -42 -30 -72 -29 -31 -41 -37 -91 -42 -84 -9 -67 -27 32 -33 73
-4 84 -8 101 -30 40 -52 15 -134 -50 -166 -19 -9 -64 -19 -100 -21 -83 -7
-156 22 -166 64 -9 35 6 76 34 88 14 6 20 15 16 25 -15 35 -15 58 1 74 17 16
16 18 -5 41 -17 18 -23 37 -24 70 -1 37 4 50 31 76 37 38 72 45 194 41 l89 -3
0 -29z m-3674 5 c3 -14 10 -25 15 -25 4 0 19 11 33 25 18 18 36 25 62 25 36 0
36 -1 30 -31 -3 -17 -6 -42 -6 -55 0 -20 -5 -24 -33 -24 -62 0 -72 -16 -75
-129 l-4 -101 -54 0 -54 0 0 170 0 170 40 0 c34 0 41 -4 46 -25z m445 -8 c88
-67 75 -242 -21 -289 -45 -22 -120 -23 -164 -2 -24 12 -42 33 -61 71 -36 69
-31 138 13 192 41 51 67 62 137 59 47 -3 68 -10 96 -31z m439 2 c0 -22 -5 -32
-20 -36 -16 -4 -20 -14 -20 -49 0 -34 -6 -51 -27 -74 -24 -25 -38 -31 -90 -37
-103 -10 -77 -33 37 -33 64 0 70 -2 94 -31 32 -38 33 -74 2 -120 -54 -80 -249
-94 -306 -22 -28 36 -25 67 10 96 30 26 39 47 20 47 -11 0 -14 60 -2 60 4 0
14 4 22 10 12 7 10 13 -13 34 -39 36 -38 104 1 145 37 38 41 39 175 40 l117 1
0 -31z m140 6 c0 -14 3 -25 6 -25 3 0 19 11 36 25 19 16 42 25 65 25 32 0 35
-2 29 -22 -3 -13 -6 -38 -6 -55 0 -32 -2 -33 -39 -33 -59 0 -71 -23 -71 -137
l0 -93 -55 0 -55 0 0 170 0 170 45 0 c41 0 45 -2 45 -25z m1860 -145 l0 -170
-55 0 -55 0 0 170 0 170 55 0 55 0 0 -170z m177 150 c3 -11 7 -20 10 -20 3 0
16 9 30 20 32 25 109 27 142 4 40 -28 51 -73 51 -204 l0 -120 -60 0 -60 0 0
108 c0 123 -10 149 -52 139 -34 -9 -39 -24 -45 -144 l-6 -103 -48 0 -49 0 0
170 0 170 41 0 c32 0 42 -4 46 -20z m-3162 -474 c73 -19 128 -51 182 -106 68
-67 72 -74 106 -153 27 -65 29 -77 25 -166 -4 -75 -10 -107 -29 -146 -48 -99
-92 -151 -164 -195 -85 -53 -117 -63 -217 -68 -84 -4 -103 -1 -140 17 -54 26
-72 63 -52 110 16 39 55 54 109 45 67 -12 129 -5 178 20 57 28 85 56 120 117
22 38 27 58 27 115 0 60 -4 76 -33 124 -19 31 -53 69 -82 90 -49 35 -50 35
-158 35 -97 0 -111 2 -133 22 -46 41 -26 116 39 140 44 16 162 16 222 -1z
m943 -300 c3 -78 3 -78 23 -60 24 21 119 25 143 5 35 -29 46 -77 46 -200 l0
-121 -60 0 -60 0 0 106 c0 139 -17 171 -68 124 -20 -19 -22 -31 -22 -125 l0
-105 -55 0 -55 0 0 231 0 230 53 -3 52 -3 3 -79z m400 46 c4 -43 -12 -62 -54
-62 -44 0 -69 34 -54 74 9 25 14 27 57 24 46 -3 48 -4 51 -36z m192 -94 c1
-146 -2 -143 55 -64 50 69 46 67 113 64 l62 -3 -50 -62 c-53 -65 -61 -92 -34
-114 9 -7 20 -22 25 -34 5 -11 23 -42 39 -68 l30 -48 -66 3 c-65 3 -65 3 -87
43 -33 60 -43 68 -67 55 -15 -8 -20 -21 -20 -55 l0 -45 -55 0 -55 0 0 230 0
230 55 0 55 0 0 -132z m390 45 c1 -64 3 -83 11 -71 12 22 80 41 116 32 15 -4
36 -14 47 -23 38 -33 46 -66 46 -191 l0 -120 -65 0 -65 0 0 119 c0 101 -2 120
-16 125 -25 10 -60 -19 -68 -55 -3 -17 -6 -67 -6 -110 l0 -79 -55 0 -55 0 0
230 0 230 55 0 55 0 0 -87z m400 0 l0 -86 25 23 c18 17 36 23 68 23 56 0 62
-4 92 -63 42 -83 29 -195 -30 -254 -22 -21 -103 -21 -134 0 -22 16 -24 16 -33
0 -6 -11 -23 -16 -53 -16 l-45 0 0 230 0 230 55 0 55 0 0 -87z m-1577 41 c15
-5 18 -13 13 -38 -10 -48 -28 -61 -67 -47 -44 15 -84 14 -99 -4 -10 -12 -10
-18 0 -30 7 -8 18 -15 24 -15 19 0 89 -40 119 -68 23 -22 27 -34 27 -82 0 -50
-4 -61 -32 -91 -31 -32 -36 -33 -118 -37 -47 -2 -97 1 -112 7 -26 10 -28 15
-28 62 0 45 2 50 18 44 36 -16 112 -27 136 -21 47 12 32 42 -38 76 -89 44
-109 68 -110 129 -1 60 25 100 75 119 35 12 157 10 192 -4z m2051 -83 c67 -16
116 -85 116 -166 0 -53 -15 -90 -53 -130 -27 -29 -32 -30 -112 -30 -80 0 -85
1 -113 30 -43 44 -52 67 -52 130 0 125 89 194 214 166z m-1454 -166 l0 -165
-55 0 -55 0 0 165 0 165 55 0 55 0 0 -165z"/>
<path d="M410 2830 c0 -47 2 -51 22 -48 51 7 55 90 4 96 -25 3 -26 2 -26 -48z"/>
<path d="M2067 2672 c-11 -12 -13 -22 -6 -35 20 -35 78 -10 79 36 0 23 -51 23
-73 -1z"/>
<path d="M4227 2813 c-4 -3 -7 -26 -7 -50 0 -39 2 -43 25 -43 18 0 26 7 31 26
11 44 -24 93 -49 67z"/>
<path d="M4180 2505 c0 -24 2 -25 64 -25 49 0 65 4 70 16 10 27 -3 34 -70 34
-62 0 -64 -1 -64 -25z"/>
<path d="M1045 2746 c-14 -88 9 -136 56 -121 24 8 31 36 27 106 l-3 54 -37 3
c-36 3 -37 3 -43 -42z"/>
<path d="M1425 2800 c-35 -39 11 -102 50 -70 20 16 19 55 -1 74 -20 21 -27 20
-49 -4z"/>
<path d="M1393 2523 c-7 -2 -13 -13 -13 -24 0 -17 8 -19 64 -19 64 0 96 16 81
40 -6 10 -109 13 -132 3z"/>
<path d="M2992 1944 c-17 -12 -22 -25 -22 -60 0 -61 14 -84 49 -84 21 0 30 6
35 23 11 42 6 105 -10 121 -19 20 -24 20 -52 0z"/>
<path d="M3363 1948 c-32 -40 -23 -134 13 -150 39 -18 64 13 64 76 0 28 -7 59
-14 69 -15 20 -49 23 -63 5z"/>
</g>
</svg>
